<svg height="480pt" viewBox="-59 0 480 480.0004" width="480pt" xmlns="http://www.w3.org/2000/svg" xmlns:xlink="http://www.w3.org/1999/xlink"><linearGradient id="a" gradientUnits="userSpaceOnUse" x1="-67.1998" x2="406.4882" y1="240" y2="240"><stop offset="0" stop-color="#ef7ec0"/><stop offset=".293" stop-color="#eb66ad"/><stop offset=".909" stop-color="#e2297c"/><stop offset="1" stop-color="#e11f74"/></linearGradient><path d="m0 240c.0429688 39.746094 32.253906 71.957031 72 72h50.769531c-.28125.800781-.601562 1.601562-.800781 2.398438l-28.984375 131.882812c-.675781 3.0625.503906 6.238281 3.015625 8.117188 51.382812 34.136718 118.21875 34.136718 169.601562 0 2.507813-1.878907 3.6875-5.054688 3.015626-8.117188l-29.023438-132.113281c-.195312-.753907-.488281-1.449219-.746094-2.167969h50.753906c39.746094-.042969 71.953126-32.253906 72-72 0-4.417969-3.582031-8-8-8h-73.035156c14.628906-39.9375 20.992188-82.425781 18.714844-124.894531-.140625-1.425781-.660156-2.789063-1.503906-3.945313 1.992187-4.804687 3.019531-9.957031 3.023437-15.160156v-32c0-3.03125-1.710937-5.800781-4.421875-7.15625-2.710937-1.355469-5.953125-1.0625-8.378906.757812l-19.273438 14.453126c5.234376-6.925782 8.070313-15.371094 8.074219-24.054688v-32c0-3.03125-1.710937-5.800781-4.421875-7.15625-2.710937-1.355469-5.953125-1.0625-8.378906.757812l-27.199219 20.398438-27.199219-20.398438c-2.425781-1.820312-5.667968-2.113281-8.378906-.757812-2.710937 1.355469-4.421875 4.125-4.421875 7.15625v18l-16 12-16-12v-18c0-3.03125-1.710937-5.800781-4.421875-7.15625-2.710937-1.355469-5.953125-1.0625-8.378906.757812l-27.199219 20.398438-27.199219-20.398438c-2.425781-1.820312-5.667968-2.113281-8.378906-.757812-2.710937 1.355469-4.421875 4.125-4.421875 7.15625v32c.03125 7.136719 1.988281 14.132812 5.664063 20.246094l-24.863282-18.644532c-2.425781-1.820312-5.667968-2.113281-8.378906-.757812-2.710937 1.355469-4.421875 4.125-4.421875 7.15625v32c.035157 9.546875 3.519531 18.753906 9.808594 25.9375-.113281.34375-.207031.695312-.273437 1.054688-2.171876 42.738281 5.132812 85.425781 21.390624 125.007812h-75.726562c-4.417969 0-8 3.582031-8 8zm251.808594 204.34375c-43.710938 26.207031-98.304688 26.207031-142.015625 0l27.734375-126.28125c.890625-3.5625 4.09375-6.066406 7.769531-6.0625h24.0625c-11.421875 30.84375-20.910156 62.371094-28.398437 94.398438-.886719 4.332031 1.910156 8.558593 6.238281 9.441406.527343.109375 1.0625.164062 1.601562.160156 3.796875-.003906 7.070313-2.675781 7.832031-6.398438 6.414063-27.761718 14.484376-55.109374 24.167969-81.90625 9.679688 26.796876 17.746094 54.144532 24.160157 81.90625.757812 3.722657 4.039062 6.398438 7.839843 6.398438.535157.003906 1.074219-.050781 1.597657-.160156 4.332031-.882813 7.125-5.109375 6.242187-9.441406-7.492187-32.027344-16.976563-63.554688-28.402344-94.398438h24.066407c3.59375-.023438 6.757812 2.367188 7.710937 5.832031zm37.792968-148.34375h-68.234374c4.011718-27.535156 27.605468-47.964844 55.433593-48h68.222657c-4.007813 27.535156-27.597657 47.964844-55.421876 48zm-4.800781-208c-.035156 10.65625-7.109375 20.007812-17.351562 22.945312-.730469.199219-1.402344.40625-2.175781.597657-1.472657.296875-2.972657.449219-4.472657.457031-2.914062-.058594-5.789062-.652344-8.488281-1.742188.324219-2.070312.488281-4.164062.488281-6.257812v-20l3.199219 2.398438c2.84375 2.136718 6.753906 2.136718 9.601562 0l19.199219-14.398438zm-132.871093-4.34375-3.128907 2.34375-11.015625-8.257812c2.609375-.867188 5.125-2.003907 7.503906-3.390626 1.75 3.40625 3.988282 6.539063 6.640626 9.304688zm-35.128907-19.59375h-.097656l.097656-.0625zm12.054688 53.144531c-2.636719-3.898437-4.046875-8.5-4.054688-13.207031v-16l19.199219 14.398438c2.84375 2.136718 6.753906 2.136718 9.601562 0l19.199219-14.398438v16c-.011719 5.832031-2.167969 11.453125-6.066406 15.792969-14.046875-.378907-26.734375-1.296875-37.878906-2.585938zm65.855469 2.585938v-.066407c-3.800782-4.359374-5.898438-9.941406-5.910157-15.726562v-16l19.199219 14.398438c2.84375 2.136718 6.753906 2.136718 9.601562 0l19.199219-14.398438v16c.003907 4.703125-1.386719 9.296875-4 13.207031-11.199219 1.289063-24 2.207031-38.089843 2.585938zm21.65625-45.472657c1.429687.847657 2.910156 1.609376 4.433593 2.28125v3.398438l-8 6-3.152343-2.398438c2.675781-2.753906 4.941406-5.878906 6.71875-9.28125zm25.234374-35.921874 19.199219-14.398438v16c-.003906 8.644531-4.675781 16.613281-12.214843 20.839844l-14.984376-11.238282c-2.425781-1.820312-5.667968-2.113281-8.378906-.757812-2.710937 1.355469-4.421875 4.125-4.421875 7.15625v1.792969l-.097656-.074219c0-.574219.097656-1.144531.097656-1.71875v-26l11.199219 8.398438c2.84375 2.136718 6.753906 2.136718 9.601562 0zm-56 16 19.199219-14.398438v16c-.015625 6.859375-3 13.375-8.183593 17.863281l-11.015626-8.261719c-.195312-.144531-.410156-.210937-.609374-.335937-.199219-.128906-.382813-.304687-.617188-.425781-.230469-.121094-.253906-.070313-.375-.121094-.355469-.148438-.722656-.269531-1.097656-.367188-.320313-.097656-.648438-.171874-.980469-.222656-.371094-.050781-.746094-.066406-1.121094-.058594-.34375-.007812-.691406.011719-1.03125.050782-.363281.054687-.722656.136718-1.074219.238281-.355468.097656-.703124.214844-1.046874.351563-.128907.058593-.265626.074218-.382813.128906-.214844.132812-.421875.277344-.617187.433594-.207032.097656-.410157.207031-.609376.328124l-10.992187 8.246094c-5.195313-4.480468-8.199219-10.988281-8.246094-17.847656v-16l19.199219 14.398438c2.84375 2.136718 6.753906 2.136718 9.601562 0zm-84.800781-30.398438 19.199219 14.398438c2.84375 2.136718 6.753906 2.136718 9.601562 0l11.199219-8.398438v26c0 .632812.085938 1.246094.121094 1.878906-.097656.074219-.21875.097656-.304687.175782-2.296876 1.996093-4.949219 3.535156-7.816407 4.539062v-14.59375c0-3.03125-1.710937-5.800781-4.421875-7.15625-2.710937-1.355469-5.953125-1.0625-8.378906.757812l-15.304688 11.476563c-2.546874-3.886719-3.898437-8.429687-3.894531-13.078125zm-32 40 19.199219 14.398438c2.84375 2.136718 6.753906 2.136718 9.601562 0l11.527344-8.644532c-.214844.726563-.324218 1.484375-.328125 2.246094v25.777344c-4.375 3.992187-10.078125 6.210937-16 6.222656-13.253906 0-24-10.746094-24-24zm112 72c29.132813.40625 58.21875-2.507812 86.695313-8.679688 3.15625-.507812 6.242187-1.394531 9.183594-2.648437 2.503906-.800781 4.886718-1.671875 7.046874-2.59375.222657 38.113281-6.90625 75.910156-21 111.320313-30.714843 6.175781-53.929687 31.472656-57.453124 62.601562h-10.074219c15.816406-25.601562 50.863281-84.207031 57.328125-110.0625.769531-2.800781-.039063-5.796875-2.113282-7.828125-2.070312-2.03125-5.082031-2.785156-7.863281-1.960937-2.785156.820312-4.90625 3.085937-5.542969 5.914062-5.007812 20.335938-31.238281 65.648438-48.207031 93.738281v-75.800781c0-4.417969-3.582031-8-8-8s-8 3.582031-8 8v75.792969c-16.96875-28.089844-43.160156-73.417969-48.242187-93.730469-1.148438-4.191406-5.433594-6.695312-9.648438-5.644531-4.21875 1.050781-6.824218 5.277343-5.871094 9.519531 6.464844 25.855469 41.511719 84.460938 57.359376 110.0625h-10.070313c-3.40625-29.914062-25.039063-54.558594-54.257813-61.816406-15.484374-35.371094-23.707031-73.492188-24.183593-112.105469 22.449219 9.546875 64.417969 13.921875 102.914062 13.921875zm-96 112c27.824219.035156 51.417969 20.464844 55.429688 48h-68.230469c-27.824219-.035156-51.414062-20.464844-55.421875-48zm0 0" fill="url(#a)"/></svg>