<svg height="512" viewBox="0 0 64 64" width="512" xmlns="http://www.w3.org/2000/svg" xmlns:xlink="http://www.w3.org/1999/xlink"><linearGradient id="linear-gradient" gradientUnits="userSpaceOnUse" x1="-1" x2="67.066" y1="32" y2="32"><stop offset="0" stop-color="#fdcdb6"/><stop offset=".186" stop-color="#fdb5b7"/><stop offset=".52" stop-color="#fe81b9"/><stop offset="1" stop-color="#fdc1f4"/></linearGradient><linearGradient id="linear-gradient-2" x2="67.066" xlink:href="#linear-gradient" y1="34" y2="34"/><linearGradient id="linear-gradient-4" x2="67.066" xlink:href="#linear-gradient" y1="31" y2="31"/><linearGradient id="linear-gradient-5" x2="67.066" xlink:href="#linear-gradient" y1="37" y2="37"/><linearGradient id="linear-gradient-6" x2="67.066" xlink:href="#linear-gradient" y1="33" y2="33"/><linearGradient id="linear-gradient-7" x2="67.066" xlink:href="#linear-gradient" y1="23" y2="23"/><linearGradient id="linear-gradient-8" x2="67.066" xlink:href="#linear-gradient" y1="29" y2="29"/><linearGradient id="linear-gradient-11" x2="67.066" xlink:href="#linear-gradient" y1="44.5" y2="44.5"/><linearGradient id="linear-gradient-13" x2="67.066" xlink:href="#linear-gradient" y1="41" y2="41"/><g id="Gradient_outline" data-name="Gradient outline"><path d="m57 16h-1v-3a1 1 0 0 0 -1-1h-6a1 1 0 0 0 -1 1v3h-20v-3a1 1 0 0 0 -1-1h-6a1 1 0 0 0 -1 1v3h-2v-3a1 1 0 0 0 -1-1h-8a1 1 0 0 0 -1 1v3h-1a5.006 5.006 0 0 0 -5 5v26a5.006 5.006 0 0 0 5 5h50a5.006 5.006 0 0 0 5-5v-26a5.006 5.006 0 0 0 -5-5zm-7-2h4v2h-4zm-28 0h4v2h-4zm-12 0h6v2h-6zm-3 4h7v2h-7a1 1 0 0 0 -1 1v4a1 1 0 0 0 1 1h7v18h-10v-23a3 3 0 0 1 3-3zm7 6h-6v-2h6zm2-2h4v2h-4zm-9 28a3 3 0 0 1 -3-3v-1h10v4zm53-3a3 3 0 0 1 -3 3h-41v-24h5a1 1 0 0 0 1-1v-4a1 1 0 0 0 -1-1h-5v-2h41a3 3 0 0 1 3 3z" fill="url(#linear-gradient)"/><path d="m36 20a14 14 0 1 0 14 14 14.015 14.015 0 0 0 -14-14zm0 26a12 12 0 1 1 12-12 12.013 12.013 0 0 1 -12 12z" fill="url(#linear-gradient-2)"/><path d="m36 24a10 10 0 1 0 10 10 10.011 10.011 0 0 0 -10-10zm0 18a8 8 0 1 1 8-8 8.009 8.009 0 0 1 -8 8z" fill="url(#linear-gradient-2)"/><path d="m36 28a6.006 6.006 0 0 0 -6 6h2a4 4 0 0 1 4-4z" fill="url(#linear-gradient-4)"/><path d="m36 38v2a6.006 6.006 0 0 0 6-6h-2a4 4 0 0 1 -4 4z" fill="url(#linear-gradient-5)"/><path d="m34 32h2v2h-2z" fill="url(#linear-gradient-6)"/><path d="m50 26h8v-6h-8zm2-4h4v2h-4z" fill="url(#linear-gradient-7)"/><g fill="url(#linear-gradient-8)"><path d="m56 28h2v2h-2z"/><path d="m52 28h2v2h-2z"/><path d="m6 28h6v2h-6z"/></g><path d="m56 46h-5v2h6a1 1 0 0 0 1-1v-6h-2z" fill="url(#linear-gradient-11)"/><path d="m6 32h6v2h-6z" fill="url(#linear-gradient-6)"/><path d="m6 40h2v2h-2z" fill="url(#linear-gradient-13)"/><path d="m10 40h2v2h-2z" fill="url(#linear-gradient-13)"/></g></svg>