<svg height="480pt" viewBox="0 -80 480 480" width="480pt" xmlns="http://www.w3.org/2000/svg" xmlns:xlink="http://www.w3.org/1999/xlink"><linearGradient id="a"><stop offset="0" stop-color="#ef7ec0"/><stop offset=".293" stop-color="#eb66ad"/><stop offset=".909" stop-color="#e2297c"/><stop offset="1" stop-color="#e11f74"/></linearGradient><linearGradient id="b" gradientUnits="userSpaceOnUse" x1="-24" x2="481.208" xlink:href="#a" y1="232.062169" y2="232.062169"/><linearGradient id="c" gradientUnits="userSpaceOnUse" x1="-24" x2="481.208" xlink:href="#a" y1="36.110169" y2="36.110169"/><linearGradient id="d" gradientUnits="userSpaceOnUse" x1="-24" x2="481.208" xlink:href="#a" y1="89.510169" y2="89.510169"/><path d="m472 216.0625h-48c-4.417969 0-8 3.582031-8 8v8h-80v-20.800781c-.855469-11.335938-10.652344-19.886719-22-19.199219h-18v-24c0-4.417969-3.582031-8-8-8-19 .023438-35.371094 13.386719-39.199219 32h-80.800781v-40c0-4.417969-3.582031-8-8-8h-58.175781c-3.140625-.003906-5.988281 1.832031-7.289063 4.6875l-19.6875 43.3125h-18.847656c-30.871094 0-56 20.800781-56 46.398438v25.601562c0 4.417969 3.582031 8 8 8h48c0 22.089844 17.910156 40 40 40s40-17.910156 40-40h88c0 22.089844 17.910156 40 40 40s40-17.910156 40-40h24c4.417969 0 8-3.582031 8-8v-7.640625l56 43.558594v12.082031c0 4.417969 3.582031 8 8 8h48c4.417969 0 8-3.582031 8-8v-32c0-4.417969-3.582031-8-8-8h-48c-4.273438.03125-7.769531 3.417969-7.9375 7.6875l-40.742188-31.6875h64.679688v8c0 4.417969 3.582031 8 8 8h48c4.417969 0 8-3.582031 8-8v-32c0-4.417969-3.582031-8-8-8zm-192-38.632812v14.632812h-14.632812c2.433593-6.828125 7.804687-12.199219 14.632812-14.632812zm-173.03125-17.367188h45.03125v32h-59.574219zm-10.96875 136c-13.253906 0-24-10.746094-24-24s10.746094-24 24-24 24 10.746094 24 24-10.746094 24-24 24zm168 0c-13.253906 0-24-10.746094-24-24s10.746094-24 24-24 24 10.746094 24 24-10.746094 24-24 24zm36.609375-40c-6.339844-14.574219-20.71875-24-36.609375-24s-30.269531 9.425781-36.609375 24h-94.78125c-6.339844-14.574219-20.71875-24-36.609375-24s-30.269531 9.425781-36.609375 24h-43.390625v-16h48v-16h-43.007812c8.484374-10.566406 21.464843-16.5 35.007812-16h258c3.71875 0 6 2.070312 6 3.199219v12.800781h-16v16h16v16zm107.390625 32h32v16h-32zm56-40h-32v-16h32zm0 0" fill="url(#b)"/><path d="m312 3.335938c-10.375-5.582032-23.132812-4.054688-31.894531 3.8125-5.167969 4.558593-8.128907 11.113281-8.128907 18 0 6.890624 2.960938 13.445312 8.128907 18l31.894531 29.074218 31.894531-29.082031c5.167969-4.554687 8.128907-11.109375 8.128907-18 0-6.886719-2.960938-13.441406-8.128907-18-8.765625-7.863281-21.523437-9.386719-31.894531-3.804687zm21.121094 15.644531c1.824218 1.53125 2.878906 3.789062 2.878906 6.167969 0 2.382812-1.054688 4.640624-2.878906 6.167968l-21.121094 19.25-21.121094-19.25c-1.824218-1.527344-2.878906-3.785156-2.878906-6.167968 0-2.378907 1.054688-4.636719 2.878906-6.167969 4.519532-3.890625 11.210938-3.890625 15.730469 0l5.390625 4.914062 5.390625-4.914062c4.519531-3.894531 11.210937-3.894531 15.730469 0zm0 0" fill="url(#c)"/><path d="m208 45.613281c-14.332031-8.605469-32.585938-6.96875-45.160156 4.050781-6.894532 6.082032-10.839844 14.835938-10.839844 24.03125 0 9.195313 3.945312 17.945313 10.839844 24.03125l45.160156 41.160157 45.160156-41.160157c6.890625-6.089843 10.835938-14.839843 10.835938-24.035156 0-9.195312-3.945313-17.949218-10.835938-24.039062-12.578125-11.015625-30.828125-12.648438-45.160156-4.039063zm34.398438 15.863281c3.570312 3.054688 5.625 7.515626 5.625 12.214844 0 4.695313-2.054688 9.15625-5.625 12.210938l-34.398438 31.335937-34.398438-31.335937c-3.570312-3.050782-5.625-7.511719-5.625-12.207032 0-4.695312 2.054688-9.15625 5.625-12.210937 8.285157-7.28125 20.695313-7.28125 28.984376 0l5.390624 4.914063 5.390626-4.921876c8.300781-7.304687 20.734374-7.304687 29.03125 0zm0 0" fill="url(#d)"/><path d="m144 224.0625h64v16h-64zm0 0" fill="url(#b)"/></svg>