<svg height="479pt" viewBox="0 0 479 479.96569" width="479pt" xmlns="http://www.w3.org/2000/svg" xmlns:xlink="http://www.w3.org/1999/xlink"><linearGradient id="a"><stop offset="0" stop-color="#ef7ec0"/><stop offset=".293" stop-color="#eb66ad"/><stop offset=".909" stop-color="#e2297c"/><stop offset="1" stop-color="#e11f74"/></linearGradient><linearGradient id="b" gradientUnits="userSpaceOnUse" x1="-15.528354" x2="472.735646" xlink:href="#a" y1="339.977253" y2="339.977253"/><linearGradient id="c" gradientUnits="userSpaceOnUse" x1="-15.528354" x2="472.735646" xlink:href="#a" y1="420.937253" y2="420.937253"/><linearGradient id="d" gradientUnits="userSpaceOnUse" x1="-15.528354" x2="472.735646" xlink:href="#a" y1="123.977253" y2="123.977253"/><linearGradient id="e" gradientUnits="userSpaceOnUse" x1="-15.528354" x2="472.735646" xlink:href="#a" y1="159.977253" y2="159.977253"/><linearGradient id="f" gradientUnits="userSpaceOnUse" x1="-15.528354" x2="472.735646" xlink:href="#a" y1="203.977253" y2="203.977253"/><linearGradient id="g" gradientUnits="userSpaceOnUse" x1="-15.528354" x2="472.735646" xlink:href="#a" y1="239.977253" y2="239.977253"/><path d="m128.472656 399.976562c4.417969 0 8-3.582031 8-8v-104c0-4.417968-3.582031-8-8-8-4.417968 0-8 3.582032-8 8v104c0 4.417969 3.582032 8 8 8zm0 0" fill="url(#b)"/><path d="m125.433594 428.296875c1.933594.855469 4.140625.855469 6.078125 0 .980469-.386719 1.875-.957031 2.640625-1.679687 1.460937-1.535157 2.289062-3.5625 2.320312-5.679688-.011718-1.046875-.230468-2.078125-.640625-3.039062-.726562-2.011719-2.308593-3.59375-4.320312-4.320313-1.941407-.839844-4.140625-.839844-6.078125 0-2.011719.726563-3.59375 2.308594-4.320313 4.320313-.410156.960937-.628906 1.992187-.640625 3.039062.03125 2.117188.859375 4.144531 2.320313 5.679688.777343.707031 1.667969 1.273437 2.640625 1.679687zm0 0" fill="url(#c)"/><path d="m184.472656 151.976562c2.121094 0 4.15625-.84375 5.65625-2.34375l40-40c3.03125-3.136718 2.988282-8.128906-.097656-11.214843-3.085938-3.085938-8.078125-3.128907-11.214844-.097657l-40 40c-2.289062 2.289063-2.972656 5.730469-1.734375 8.71875 1.238281 2.988282 4.15625 4.9375 7.390625 4.9375zm0 0" fill="url(#d)"/><path d="m186.816406 213.632812c3.125 3.125 8.1875 3.125 11.3125 0l96-96c3.03125-3.136718 2.988282-8.128906-.097656-11.214843-3.085938-3.085938-8.078125-3.128907-11.214844-.097657l-96 96c-3.125 3.125-3.125 8.1875 0 11.3125zm0 0" fill="url(#e)"/><path d="m242.816406 237.632812c3.125 3.125 8.1875 3.125 11.3125 0l56-56c3.03125-3.136718 2.988282-8.128906-.097656-11.214843-3.085938-3.085938-8.078125-3.128907-11.214844-.097657l-56 56c-3.125 3.125-3.125 8.1875 0 11.3125zm0 0" fill="url(#f)"/><path d="m415.671875 76.144531 8.398437-24.960937c.960938-2.898438.183594-6.09375-2-8.230469-.496093-.488281-39.808593-38.488281-86.589843-23.351563-104.109375-44.875-225.417969-10.777343-290.90625 81.761719-65.484375 92.539063-57.289063 218.28125 19.65625 301.535157.074219.070312.167969.09375.242187.167968v28.910156c0 13.253907 10.746094 24 24 24h47.597656c.210938.128907.351563.328126.578126.441407 67.347656 32.21875 145.84375 31.332031 212.445312-2.402344.089844-.039063.144531-.125.234375-.175781 9.511719 3.667968 20.210937 2.519531 28.730469-3.074219 8.523437-5.59375 13.824218-14.953125 14.246094-25.140625.277343-.140625.542968-.300781.800781-.480469 51.027343-42.066406 82.4375-103.324219 86.8125-169.308593 4.375-65.988282-18.675781-130.855469-63.703125-179.289063-.171875-.144531-.355469-.277344-.542969-.402344zm-316.601563 1.234375c12.074219-11.386718 31.617188-14.257812 43.28125-14.921875-3.707031 11.433594-10.941406 21.398438-20.664062 28.464844-9.730469 6.074219-21.355469 8.351563-32.65625 6.398437.90625-7.613281 4.453125-14.671874 10.023438-19.941406zm-10.597656 36.03125c2.886719.335938 5.792969.507813 8.703125.519532 11.835938.191406 23.457031-3.179688 33.351563-9.679688 5.285156-3.554688 9.992187-7.910156 13.945312-12.90625v76.632812h-56zm0 70.566406h56v32h-56zm0 48h56v16h-56zm-16 16c-4.417968 0-8 3.582032-8 8v37.601563c-12.949218-42.453125-10.109375-88.15625 8-128.679687zm0-144v27.839844c-.289062.246094-.554687.515625-.800781.800782-38.480469 60.589843-41.59375 137.136718-8.160156 200.648437.277343.472656.597656.917969.960937 1.328125v43.878906c-67.457031-85.589844-63.402344-207.34375 9.597656-288.253906-1.066406 4.507812-1.605468 9.125-1.597656 13.757812zm80 310.335938v17.664062c0 4.417969-3.582031 8-8 8h-56c-4.417968 0-8-3.582031-8-8v-168h72zm.488282-368c-9.703126-.378906-19.414063.410156-28.929688 2.351562 57.699219-35.171874 128.207031-42.382812 191.832031-19.613281-6.117187 4.046875-11.8125 8.707031-16.992187 13.902344-1.347656 1.367187-2.152344 3.171875-2.269532 5.089844-45.023437-12.847657-93.097656-9.789063-136.128906 8.652343v-2.398437c-.035156-4.203125-3.316406-7.664063-7.511718-7.917969zm7.511718 28c44.265625-21.425781 95.28125-24.1875 141.597656-7.664062l18.53125 55.074218 7.871094 70.679688v209.175781c-49.359375 26.867187-108.289062 29.703125-160 7.703125v-153.304688c0-4.417968-3.582031-8-8-8zm80 389.664062c-27.1875.042969-54.148437-4.914062-79.546875-14.617187 4.804688-4.503906 7.535157-10.796875 7.546875-17.382813v-5.382812c51.988282 20.035156 109.976563 17.480469 160-7.054688v4.4375c.023438 6.890626 2.289063 13.585938 6.453125 19.074219-29.558593 13.847657-61.8125 20.996094-94.453125 20.925781zm136-40c0 8.835938-7.164062 16-16 16-8.835937 0-16-7.164062-16-16v-192h32zm0-208h-32v-16h32zm.800782-32h-33.601563l-6.222656-56h46.125zm9.40625-72h-8.449219l6.082031-30.398437c.699219-4.253906-2.097656-8.296875-6.324219-9.144531-4.230469-.84375-8.367187 1.8125-9.355469 6.007812l-6.722656 33.535156h-2.878906l-6.71875-33.597656c-.992188-4.199218-5.128906-6.855468-9.355469-6.007812-4.226562.84375-7.023437 4.886718-6.324219 9.140625l6.078126 30.402343h-8.488282l-20.535156-60.976562c41.238281-37.121094 81.382812-9.855469 93.511719.160156zm11.070312 32.527344c37.425781 61.605469 35.363281 139.40625-5.277344 198.9375v-151.039062zm-5.277344 260.007813v-34.566407c60.003906-70.164062 64.183594-172.285156 10.109375-247.121093-.554687-.726563-1.234375-1.355469-2.007812-1.855469l9.265625-27.519531c79.113281 91.382812 71.425781 229.058593-17.367188 311.0625zm0 0" fill="url(#g)"/></svg>