<?xml version="1.0" encoding="iso-8859-1"?>
<!-- Generator: Adobe Illustrator 19.0.0, SVG Export Plug-In . SVG Version: 6.00 Build 0)  -->
<svg version="1.1" id="Capa_1" xmlns="http://www.w3.org/2000/svg" xmlns:xlink="http://www.w3.org/1999/xlink" x="0px" y="0px"
	 viewBox="0 0 480 480" style="enable-background:new 0 0 480 480;" xml:space="preserve">
<linearGradient id="SVGID_1_" gradientUnits="userSpaceOnUse" x1="-57.363" y1="605.6296" x2="3.705" y2="605.6296" gradientTransform="matrix(8 0 0 -8 455.0001 5085.0366)">
	<stop  offset="0" style="stop-color:#EE235F"/>
	<stop  offset="1" style="stop-color:#F7B733"/>
</linearGradient>
<path style="fill:url(#SVGID_1_);" d="M9.936,463.764l125.848-31.456l101.864,31.344c1.533,0.471,3.171,0.471,4.704,0
	l101.864-31.344l125.848,31.456c4.287,1.069,8.629-1.539,9.698-5.826c0.158-0.633,0.238-1.282,0.238-1.934v-368
	c-0.001-3.672-2.501-6.871-6.064-7.76l-128-32c-1.412-0.364-2.897-0.325-4.288,0.112l-24,7.392
	c-30.887-42.871-90.679-52.585-133.549-21.699c-8.353,6.018-15.68,13.345-21.699,21.699l-24-7.392
	c-1.391-0.436-2.876-0.475-4.288-0.112l-128,32C2.53,81.114,0.006,84.318,0,88.004v368c0.001,4.418,3.584,7.999,8.002,7.998
	C8.654,464.002,9.303,463.922,9.936,463.764L9.936,463.764z M240,32.004c44.163,0.048,79.951,35.837,80,80
	c-0.224,11.944-40.144,103.472-80,189.104c-39.864-85.64-79.784-177.184-80-189.104C160.048,67.841,195.837,32.053,240,32.004z
	 M16,94.252l119.784-29.944l18.088,5.6c-6.472,13.09-9.85,27.493-9.872,42.096c0,21.208,73.936,179.824,88.8,211.4
	c1.88,3.999,6.645,5.716,10.643,3.837c1.687-0.793,3.044-2.15,3.837-3.837c14.784-31.576,88.72-190.192,88.72-211.4
	c-0.016-14.616-3.394-29.033-9.872-42.136l18.088-5.6L464,94.252v351.504l-118.064-29.512c-1.412-0.364-2.897-0.325-4.288,0.112
	L240,447.636l-101.648-31.28c-1.391-0.436-2.876-0.475-4.288-0.112L16,445.756L16,94.252z"/>
<g>
	
		<linearGradient id="SVGID_2_" gradientUnits="userSpaceOnUse" x1="-57.363" y1="621.6291" x2="3.705" y2="621.6291" gradientTransform="matrix(8 0 0 -8 455.0001 5085.0366)">
		<stop  offset="0" style="stop-color:#EE235F"/>
		<stop  offset="1" style="stop-color:#F7B733"/>
	</linearGradient>
	<path style="fill:url(#SVGID_2_);" d="M240,168.004c30.928,0,56-25.072,56-56s-25.072-56-56-56s-56,25.072-56,56
		C184.035,142.917,209.087,167.969,240,168.004z M240,72.004c22.091,0,40,17.909,40,40s-17.909,40-40,40s-40-17.909-40-40
		C200.026,89.924,217.92,72.031,240,72.004z"/>
	
		<linearGradient id="SVGID_3_" gradientUnits="userSpaceOnUse" x1="-57.363" y1="588.6291" x2="3.705" y2="588.6291" gradientTransform="matrix(8 0 0 -8 455.0001 5085.0366)">
		<stop  offset="0" style="stop-color:#EE235F"/>
		<stop  offset="1" style="stop-color:#F7B733"/>
	</linearGradient>
	<path style="fill:url(#SVGID_3_);" d="M240,408.004c31.808,0,64-10.992,64-32s-32.192-32-64-32s-64,10.992-64,32
		S208.192,408.004,240,408.004z M240,360.004c29.776,0,48,10.4,48,16s-18.224,16-48,16s-48-10.4-48-16S210.224,360.004,240,360.004z
		"/>
	
		<linearGradient id="SVGID_4_" gradientUnits="userSpaceOnUse" x1="-57.363" y1="601.6291" x2="3.705" y2="601.6291" gradientTransform="matrix(8 0 0 -8 455.0001 5085.0366)">
		<stop  offset="0" style="stop-color:#EE235F"/>
		<stop  offset="1" style="stop-color:#F7B733"/>
	</linearGradient>
	<path style="fill:url(#SVGID_4_);" d="M144,392.004v-240c0-4.418-3.582-8-8-8s-8,3.582-8,8v240c0,4.418,3.582,8,8,8
		S144,396.422,144,392.004z"/>
	
		<linearGradient id="SVGID_5_" gradientUnits="userSpaceOnUse" x1="-57.363" y1="601.6291" x2="3.705" y2="601.6291" gradientTransform="matrix(8 0 0 -8 455.0001 5085.0366)">
		<stop  offset="0" style="stop-color:#EE235F"/>
		<stop  offset="1" style="stop-color:#F7B733"/>
	</linearGradient>
	<path style="fill:url(#SVGID_5_);" d="M344,400.004c4.418,0,8-3.582,8-8v-240c0-4.418-3.582-8-8-8s-8,3.582-8,8v240
		C336,396.422,339.582,400.004,344,400.004z"/>
</g>
<g>
</g>
<g>
</g>
<g>
</g>
<g>
</g>
<g>
</g>
<g>
</g>
<g>
</g>
<g>
</g>
<g>
</g>
<g>
</g>
<g>
</g>
<g>
</g>
<g>
</g>
<g>
</g>
<g>
</g>
</svg>
