<svg height="480pt" viewBox="-122 0 480 480" width="480pt" xmlns="http://www.w3.org/2000/svg" xmlns:xlink="http://www.w3.org/1999/xlink"><linearGradient id="a"><stop offset="0" stop-color="#ef7ec0"/><stop offset=".293" stop-color="#eb66ad"/><stop offset=".909" stop-color="#e2297c"/><stop offset="1" stop-color="#e11f74"/></linearGradient><linearGradient id="b" gradientUnits="userSpaceOnUse" x1="-129.90684" x2="373.83716" xlink:href="#a" y1="240" y2="240"/><linearGradient id="c" gradientUnits="userSpaceOnUse" x1="-129.90684" x2="373.83716" xlink:href="#a" y1="344" y2="344"/><path d="m2.683594 377.519531 1.257812 6.480469h90.152344v48h-24c-22.082031.027344-39.972656 17.917969-40 40 0 4.417969 3.582031 8 8 8h160c4.417969 0 8-3.582031 8-8-.027344-22.082031-17.921875-39.972656-40-40h-24v-48h90.152344l1.253906-6.480469c10.6875-55.078125-12.496094-110.582031-34.910156-164.246093-13.433594-29.515626-24.128906-60.203126-31.953125-91.671876l30.113281-45.167968c.871094-1.316406 1.339844-2.855469 1.34375-4.433594-.023438-19-13.390625-35.371094-32-39.199219v-32.800781h-16v32h-64v-32h-16v32.800781c-18.613281 3.828125-31.976562 20.199219-32 39.199219 0 1.578125.46875 3.125 1.34375 4.441406l30.113281 45.160156c-7.824219 31.464844-18.519531 62.148438-31.953125 91.664063-22.417968 53.671875-45.601562 109.175781-34.914062 164.253906zm186.042968 86.480469h-141.265624c3.402343-9.582031 12.464843-15.988281 22.632812-16h96c10.167969.011719 19.230469 6.417969 22.632812 16zm-62.632812-32h-16v-48h16zm-48-384h80c12.375.003906 22.71875 9.414062 23.886719 21.734375l-28.167969 42.265625h-71.4375l-28.167969-42.265625c1.164063-12.320313 11.511719-21.730469 23.886719-21.734375zm-25.730469 171.441406c13.359375-29.496094 24.140625-60.089844 32.226563-91.441406h67c8.09375 31.351562 18.875 61.945312 32.230468 91.441406 16.097657 38.519532 32.527344 78.015625 35.722657 116.558594h-45.449219v16h45.984375c-.085937 5.351562-.484375 10.695312-1.199219 16h-201.585937c-.714844-5.304688-1.117188-10.648438-1.199219-16h46v-16h-45.449219c3.191407-38.542969 19.625-78.039062 35.71875-116.558594zm0 0" fill="url(#b)"/><g fill="url(#c)"><path d="m78.09375 336h16v16h-16zm0 0"/><path d="m110.09375 336h16v16h-16zm0 0"/><path d="m142.09375 336h16v16h-16zm0 0"/></g></svg>